<svg width="512" height="512" viewBox="0 0 512 512" xmlns="http://www.w3.org/2000/svg">
  <circle cx="256" cy="256" r="250" fill="#f0f0f0" />
  
  <path d="M256,6 A250,250 0 0,1 472,131 L256,256 Z" fill="#d9418a" /> <path d="M472,131 A250,250 0 0,1 403,431 L256,256 Z" fill="#4ab2d4" /> <path d="M403,431 A250,250 0 0,1 109,431 L256,256 Z" fill="#603f8b" /> <path d="M109,431 A250,250 0 0,1 40,131 L256,256 Z" fill="#58ccaa" /> <path d="M40,131 A250,250 0 0,1 256,6 L256,256 Z" fill="#58ccaa" opacity="0.8" /> <defs>
    <radialGradient id="sunGradient" cx="50%" cy="50%" r="50%">
      <stop offset="0%" stop-color="#f8c35e" />
      <stop offset="100%" stop-color="#e28739" />
    </radialGradient>
  </defs>
  <circle cx="256" cy="256" r="180" stroke="white" stroke-width="8" fill="url(#sunGradient)" />

  <path d="M130,320 L382,320 L382,380 L130,380 Z" fill="#2c5282" /> <path d="M175,290 L175,320 L210,320 L210,290 Z" fill="#2c5282" /> <path d="M302,290 L302,320 L337,320 L337,290 Z" fill="#2c5282" /> <path d="M210,280 L210,320 L302,320 L302,280 Q256,220 210,280" fill="#2c5282" />
  <circle cx="256" cy="285" r="12" fill="#2c5282" /> <path d="M205,175 Q212,165 220,175 L220,280 L205,280 Z" fill="#2c5282" /> <path d="M292,175 Q300,165 307,175 L307,280 L292,280 Z" fill="#2c5282" /> <rect x="254" y="210" width="4" height="25" fill="#2c5282" /> <rect x="251" y="215" width="10" height="3" fill="#2c5282" /> <circle cx="212" cy="170" r="4" fill="#2c5282" />
  
  <path d="M248,380 L248,365 Q256,355 264,365 L264,380 Z" fill="#f8c35e" />
</svg>